<svg xmlns="http://www.w3.org/2000/svg" enable-background="new 0 0 1920 1080" viewBox="0 0 1920 1080"><ellipse cx="998.1" cy="1043" fill="#26d7fe" opacity=".1" rx="186" ry="37" class="color2a94f4 svgShape"></ellipse><path fill="#26d7fe" d="M991.1 14.5c-271.5 0-491.6 220.1-491.6 491.6s220.1 491.6 491.6 491.6 491.6-220.1 491.6-491.6S1262.6 14.5 991.1 14.5zm320.1 533.6L856.2 863c-23.5 16.3-55.7-.6-55.7-29.2V204.1c0-28.6 32.1-45.5 55.7-29.2l455 314.9c20.4 14.1 20.4 44.2 0 58.3z" opacity=".1" class="color2a94f4 svgShape"></path><path fill="#700b2f" d="M947.4 156.2s-42.1-.9-47.9 80.4c-5.8 81.3-15 107.9-64.9 127.9s-65.3 85.7-28.5 116.5 189.6 134.6 209.2 10.6 40.9-75.1 72.9-122.9c57.6-86-39.1-200-75-207.3-35.9-7.3-65.8-5.2-65.8-5.2z" class="color0b4870 svgShape"></path><path fill="#d85b53" d="m1047.7 345.9 1-1.5.8-1.2 1.1-1.9 2.3-3.7 4.5-7.3 8.9-14.6 17.8-29.2c11.8-19.5 23.6-38.9 35.4-58.8l1.1-1.9 1.2-2.2c.8-1.5 1.7-3.1 2.4-4.5 1.3-2.8 2.7-5.6 3.9-8.3 2.4-5.5 4.6-10.9 6.9-16.3 4.3-10.8 8.4-21.5 12.4-32.3 8-21.5 19.1-65.9 19.1-65.9l-16.7-4.9s-23.2 38.3-31.9 59.1c-4.4 10.4-8.8 20.8-13.4 30.9-2.3 5.1-4.6 10.1-7 14.9-1.2 2.5-2.4 4.7-3.6 7-.6 1.1-1.2 2-1.7 3l-.9 1.5-1.1 1.7c-12.3 18.7-25.1 37.7-37.8 56.5l-37.6 55.5-1 1.5c-6.4 9.4-3.9 22.2 5.5 28.5 9.4 6.4 22.2 3.9 28.5-5.5-.2.1-.1-.1-.1-.1z" class="colorb97a59 svgShape"></path><path fill="#d85b53" d="M1166.5 99.1s9.3-32.9-2.9-45.6c-12.2-12.6-25.6-2.2-23 12.6 2.6 14.8 7.8 30.5 5.3 36.9-2.4 6.3 7.8 8.4 7.8 8.4l12.8-12.3z" class="colorb97a59 svgShape"></path><path fill="#f57971" d="M1032.9 327.2c.9.4 8.1 67.4 5.5 77.2-2.2 8.3-13.3 25.1-19.6 33.9-1.7-11.5-3.4-22.9-4.9-34.3l-3.9-30.1c.4-2.1.9-4.2 1.4-6.4 7-31.5 20.6-40.6 21.5-40.3z" opacity=".5" class="colorf5a171 svgShape"></path><path fill="#ff5f55" d="M1047 418c-1.9 8-1.2 79.4 1.3 120.1H942.6c1.6-2.4 18.3-48.4 14.5-59.8-10.5-31.5-31.8-95.4-33.6-102.2-2.4-9.1.5-55.4 2.4-57.3 1.9-1.9 37-16.3 40-16s34-7.8 34-7.8l13.1 11.7c1.3.3 11.5-3.1 18.5 1.9.1.6.4 1.1.8 1.7 9.3 12.5 23.1 65.7 24.1 67.4 2.3 4.3 9.3 25.9-9.4 40.3z" class="colorffbe55 svgShape"></path><path fill="#a55550" d="m1012.9 306.5.1.2h-58c-.1-.2-.1-.5-.1-.7 18-13.1-2.9-75.8-2.9-81.4 0 0 48.7 11.2 61.3 24.5-30.7 35.5-.4 57.4-.4 57.4z" class="colora56950 svgShape"></path><path fill="#d85b53" d="M944.1 244.1c-2.7-12.1-5.8-24.1-5.8-36.4 0-81.4 92.5-55.9 92.5-21.9 0 20.4 2.9 57-10.2 81-5.2 9.5-16 14.4-26.5 12.1-25.8-5.6-46-16.8-49.9-34.4l-.1-.4zM954.8 344.4l-.6 1.7-.6 1.3-.9 2-1.7 4-3.4 7.9-6.8 15.7-13.6 31.4c-9.1 21-18.1 41.7-27.5 62.8l-.9 2-1.1 2.3c-.8 1.5-1.5 3.1-2.3 4.5-1.5 2.7-3 5.5-4.6 8-3.1 5.1-6.2 10.1-9.3 15-6.3 9.8-12.7 19.3-19.1 28.8-12.9 19-42.7 53.7-42.7 53.7L806 574.7s17.8-41 29.8-60.2c5.9-9.6 11.8-19.2 17.5-28.8 2.8-4.8 5.5-9.6 8.1-14.4 1.3-2.4 2.4-4.7 3.6-7 .5-1.1.9-2.1 1.4-3.1l.7-1.6.8-1.9c8.2-20.9 16.3-42.3 24.3-63.5l23.5-62.7.6-1.7c4-10.6 15.8-16 26.4-12 10.6 4 16 15.8 12 26.4.2 0 .1.1.1.2z" class="colorb97a59 svgShape"></path><path fill="#d85b53" d="M822.1 583.9s-21.5 26.6-38.8 24c-17.3-2.6-16.6-19.6-3-26 13.6-6.4 29.4-11.3 33.2-17s11.3 1.5 11.3 1.5l-2.7 17.5z" class="colorb97a59 svgShape"></path><path fill="#f2ffe8" d="M1017.7 527.6c22.5 0 29.1-20.3 29.1-20.3l9.3 36.9c-5.6 4.7-16.3 2.3-16.8 9.6-3.2.2-7.4-.2-12.8-1.6-30.4-7.9-57.7-10.1-57.7-10.1s-3.1-9.7-5.7-15.9c-2.6-6.2-10.6-18.9-10.6-18.9s42.8 20.3 65.2 20.3z" class="colorf6e8ff svgShape"></path><path fill="#700b2f" d="M1112.2 1035.7c3.1-.1 3.9-4.2 1.1-5.5-9.4-4.1-19.7-8.9-24.8-9.5-7.8-1-30.8-1-30.8-1s-2.4 17.1-1 17.1c1 .1 35.4-.6 55.5-1.1zM946.9 1041.8c3.1-.1 3.9-4.2 1.1-5.5-9.4-4.1-19.7-8.9-24.8-9.5-7.8-1-30.8-1-30.8-1s-2.4 17.1-1 17.1c1 .1 35.4-.7 55.5-1.1z" class="color0b4870 svgShape"></path><path fill="#0e758c" d="M1141.5 739.4 1047 507.2l-94.4-1c-3.2 6.1-27.4 39.7-30.6 70.7-3 28.7 43.6 168 54.1 208.1.3-.1-83.3 240.9-83.3 240.9l22.6-.1 103.4-209.3c9.9-17.5 13.6-37.9 10.4-57.7l-11.4-148c27.8 59.2 75.2 151.2 77.5 156.3-23.1 114.5-38 252.5-38 252.5l23.2.5 64.2-222.1c5.6-19.3 4.5-40-3.2-58.6z" class="color0e538c svgShape"></path><path fill="#f57971" d="M950.7 224.4c0 6.7-4.9 12.2-10.9 12.2s-10.9-5.5-10.9-12.2 4.9-12.2 10.9-12.2c6.1 0 10.9 5.5 10.9 12.2z" class="colorf5a171 svgShape"></path><path fill="#700b2f" d="M964.9 178.2s3.8 43.1-25 38.2c0 0-30.3-14 0-52.3s88-8.7 93.3 16.3-2.9 48.7-2.9 48.7 5.4-43-9.8-51.7c-19.1-10.9-29.4 21.6-55.6.8z" class="color0b4870 svgShape"></path><linearGradient id="a" x1="-2052.8" x2="-2052.8" y1="151.902" y2="348.72" gradientTransform="matrix(-.9988 -.0496 .1118 1.0621 -1130.44 -106.151)" gradientUnits="userSpaceOnUse"><stop offset="0" stop-color="#d45985" class="stopColorffac85 svgShape"></stop><stop offset="1" stop-color="#ff6359" class="stopColorff8e59 svgShape"></stop></linearGradient><path fill="url(#a)" d="M931 238.8c-.9-8.5 4.9-15.1 12.9-14.7 8 .4 15.2 7.6 16.1 16.2.9 8.5-4.9 15.1-12.9 14.7-7.9-.4-15.2-7.7-16.1-16.2z"></path><ellipse cx="942.3" cy="237.5" fill="#751638" rx="20.6" ry="23.4" class="color341675 svgShape"></ellipse><path fill="#a1d6e2" d="M971.4 234.3c0 15.9-13.6 28.8-27.1 28.8-13.5 0-24.4-12.9-24.4-28.8s10.9-28.8 24.4-28.8c13.6 0 27.1 12.9 27.1 28.8z" class="colora1c9e2 svgShape"></path><ellipse cx="942.4" cy="234.3" fill="#9ae45f" rx="22.5" ry="28.8" class="colorf7f7f7 svgShape"></ellipse><path fill="#9ae45f" d="M934 208.8c0-1.1 1.5-53.6 49.4-57.6 10.3-1 38.8 11.4 38.8 11.4s-38.8-16.1-60.8 8.7c-11.1 12.6-13.8 38.1-13.8 38.1l-13.6-.6z" class="colorf7f7f7 svgShape"></path><path fill="#ff5f55" d="M630.9 880.6s0-.1 0 0l-.6-112.2h-6.1l.5 98.6c-4.5-4.3-11.1-7-18.5-7-13.6 0-24.6 9.2-24.6 20.5s11 20.3 24.6 20.3c13.5 0 24.4-8.4 24.6-20.4h.2v.2z" class="colorffbe55 svgShape"></path><path fill="#700b2f" d="M1228.4 464.5c-2.7-6.7-9.8-11-18.2-11-4.7 0-9.3 1.4-13.1 3.9-2.9 1.9-5.1 4.3-6.8 7.1l.4-85h-6.1L1184 492v5l3.1.1s1-.1 2.6-.1c5.4 0 15.7-.4 23.7-3.8 12.6-5.3 19.2-18.1 15-28.7zm-17.5 22.8c-6.8 2.9-15.9 3.4-20.3 3.4.4-14.7 3.5-23.3 10.1-27.7 2.7-1.8 6.1-2.8 9.4-2.8 5.7 0 10.5 2.7 12.1 6.8 3 7.2-2.1 16.4-11.3 20.3z" class="color0b4870 svgShape"></path><path fill="#ff5f55" d="M1458.1 610.2c9.9 0 18 6.2 18 13.9s-8.1 13.9-18 13.9-18-6.2-18-13.9c0-7.6 8.1-13.9 18-13.9m0-6.6c-13.6 0-24.6 9.2-24.6 20.5s11 20.5 24.6 20.5c13.6 0 24.6-9.2 24.6-20.5s-11-20.5-24.6-20.5zM876.8 115.5l-.4-112.1V1.6L790 12.3l.1 13.4.4 86.2c-4.5-4.3-11.1-7-18.5-7-13.6 0-24.6 9.2-24.6 20.5s11 20.3 24.6 20.3c13.5 0 24.4-8.3 24.6-20.4v.2L796.3 25l74-9.6.4 86.6c-4.5-4.3-11.1-7-18.5-7-13.6 0-24.6 9.2-24.6 20.5s11 20.3 24.6 20.3c13.5 0 24.4-8.3 24.6-20.4v.1z" class="colorffbe55 svgShape"></path><path fill="#700b2f" d="M1348.3 171.9c-5-2.9-11.2-1.8-13.6 2.3h-.1l-21.6 37.7-29.9-12.4 18.7-32.6c.8 2.6 2.7 5 5.4 6.6 5.1 2.9 11.2 1.9 13.7-2.4 2.5-4.2.3-10-4.8-13-5-2.9-11.2-1.8-13.6 2.3h-.1l-24.1 42.1-.4.7 34.7 14.7 2.8-5 18.6-32.5c.8 2.6 2.7 5 5.4 6.6 5.1 2.9 11.2 1.9 13.7-2.3s.3-9.8-4.8-12.8zM662 285.9c-5.8.8-9.9 5.5-9.3 10.2h-.1l6.1 43.1-31.2 8.5-5.3-37.2c2.2 1.6 5.2 2.3 8.4 1.9 5.8-.8 10-5.4 9.3-10.3-.7-4.9-5.9-8.1-11.8-7.3-5.8.8-9.9 5.5-9.3 10.2h-.1l6.9 48 .1.8 36.5-9.7-.9-5.7-5.3-37c2.2 1.6 5.2 2.3 8.4 1.9 5.8-.8 10-5.4 9.3-10.2s-5.9-8-11.7-7.2z" class="color0b4870 svgShape"></path><path fill="#ff5f55" d="m1380.6 921.6-.4-112.2v-1.9l-86.4 10.8.1 13.3.4 86.3c-4.5-4.3-11.1-7-18.5-7-13.6 0-24.6 9.2-24.6 20.5s11 20.2 24.6 20.2c13.4 0 24.3-8.3 24.6-20.4v.2-.2l-.3-87.7 74-10.1.3 74.5c-4.5-4.3-11.1-7-18.5-7-13.6 0-24.6 9.2-24.6 20.5s11 20.8 24.6 20.8c13.4 0 24.3-8.8 24.6-19.8v-.8zm-80.5-84.6v-6l74-9.6v5.5l-74 10.1zM1561.3 336.5c-8.7 0-15.8 6.1-16 13.2h-.1.1l.2 56.9-48 6.6-.2-48.4c2.9 2.8 7.2 4.5 12 4.5 8.8 0 16-6 16-13.3 0-7.4-7.1-13.2-16-13.2-8.7 0-15.8 6.1-16 13.2h-.1.1l.3 72.6v1.3l56.1-7-.1-8.6-.3-56c2.9 2.8 7.2 4.5 12 4.5 8.8 0 16-5.9 16-13.3 0-7.1-7.2-13-16-13zm-15.8 74.5v3.9l-48 6.3v-3.5l48-6.7zM590.2 520.8c-8.7 0-15.8 6.1-16 13.2h-.1.1l.2 56.9-48 6.6-.2-48.4c2.9 2.8 7.2 4.5 12 4.5 8.8 0 16-6 16-13.3 0-7.4-7.1-13.2-16-13.2-8.7 0-15.8 6.1-16 13.2h-.1.1l.3 72.6v1.3l56.1-7-.1-8.6-.3-56c2.9 2.8 7.2 4.5 12 4.5 8.8 0 16-5.9 16-13.3 0-7.1-7.1-13-16-13zm-15.7 74.5v3.9l-48 6.3V602l48-6.7z" class="colorffbe55 svgShape"></path></svg>